<svg xmlns="http://www.w3.org/2000/svg" viewBox="0 0 54.78 65.03"><defs><linearGradient id="a4bbf66f4-bcf7-43da-9adc-007981673f2c" x1="21.22" y1="50.92" x2="21.22" y2="2.55" gradientUnits="userSpaceOnUse"><stop offset=".1" stop-color="#e46a2b"/><stop offset=".55" stop-color="#db2d7f"/><stop offset=".62" stop-color="#cf2e80"/><stop offset=".74" stop-color="#b13184"/><stop offset=".91" stop-color="#7f3689"/><stop offset="1" stop-color="#62398c"/></linearGradient><linearGradient id="b753eacca-3846-43ba-bffc-9e471207352e" x1="1.51" y1="11.4" x2="50.84" y2="11.4" gradientUnits="userSpaceOnUse"><stop offset="0" stop-color="#f1c120"/><stop offset=".18" stop-color="#f0b921"/><stop offset=".47" stop-color="#eca324"/><stop offset=".82" stop-color="#e77f28"/><stop offset="1" stop-color="#e46a2b"/></linearGradient><linearGradient id="c06d98459-dc91-42ba-9703-afb01612ac16" x1="1.51" y1="53.61" x2="54.78" y2="53.61" gradientUnits="userSpaceOnUse"><stop offset="0" stop-color="#f1c120"/><stop offset=".18" stop-color="#f0b921"/><stop offset=".47" stop-color="#eca324"/><stop offset=".82" stop-color="#e77f28"/><stop offset="1" stop-color="#e46a2b"/></linearGradient></defs><g><path d="M38.3 49.39a24.64 24.64 0 0 1-2.65.15c-12.81 0-23.19-9.89-23.19-22.08S22.83 5.39 35.64 5.39a24.52 24.52 0 0 1 3.43.27c.39-1.66.82-3.17 1.28-4.66a35.34 35.34 0 0 0-6.78-.64C15 .36 0 14.67 0 32.31s15 32 33.57 32a35.16 35.16 0 0 0 8.87-1.14 68.63 68.63 0 0 1-4.14-13.78z" fill="url(#a4bbf66f4-bcf7-43da-9adc-007981673f2c)"/><path d="M1.51 22.8S6 8.62 24.7 11.49s23.95-.72 23.95-.72 4.75-2.61.24-6.52c0 0-4.31-4.25-16.46-4.25C22.44 0 6 7.72 1.51 22.8z" fill="url(#b753eacca-3846-43ba-bffc-9e471207352e)"/><path d="M1.51 42.19S8 58 24.89 49.91c21.12-10.05 28.51 0 28.51 0A7.52 7.52 0 0 1 52 60.1s-4.54 5.47-19.57 4.9C22.45 64.6 6 57.27 1.51 42.19z" fill="url(#c06d98459-dc91-42ba-9703-afb01612ac16)"/></g>
</svg>
